<?xml version="1.0" encoding="UTF-8" standalone="no"?>
<!-- Created with Inkscape (http://www.inkscape.org/) -->

<svg
   xmlns:dc="http://purl.org/dc/elements/1.1/"
   xmlns:cc="http://creativecommons.org/ns#"
   xmlns:rdf="http://www.w3.org/1999/02/22-rdf-syntax-ns#"
   xmlns:svg="http://www.w3.org/2000/svg"
   xmlns="http://www.w3.org/2000/svg"
   xmlns:sodipodi="http://sodipodi.sourceforge.net/DTD/sodipodi-0.dtd"
   xmlns:inkscape="http://www.inkscape.org/namespaces/inkscape"
   id="svg2985"
   version="1.1"
   inkscape:version="0.48.4 r9939"
   width="1036"
   height="859"
   sodipodi:docname="Pro.png">
  <metadata
     id="metadata2991">
    <rdf:RDF>
      <cc:Work
         rdf:about="">
        <dc:format>image/svg+xml</dc:format>
        <dc:type
           rdf:resource="http://purl.org/dc/dcmitype/StillImage" />
        <dc:title></dc:title>
      </cc:Work>
    </rdf:RDF>
  </metadata>
  <defs
     id="defs2989" />
  <sodipodi:namedview
     pagecolor="#ffffff"
     bordercolor="#666666"
     borderopacity="1"
     objecttolerance="10"
     gridtolerance="10"
     guidetolerance="10"
     inkscape:pageopacity="0"
     inkscape:pageshadow="2"
     inkscape:window-width="1920"
     inkscape:window-height="1057"
     id="namedview2987"
     showgrid="false"
     inkscape:zoom="1"
     inkscape:cx="544.53763"
     inkscape:cy="406.37574"
     inkscape:window-x="-8"
     inkscape:window-y="-8"
     inkscape:window-maximized="1"
     inkscape:current-layer="svg2985" />
  <path
     style="fill:#000000"
     d="M 243.5,854.93796 C 172.48407,852.56375 114.28081,838.53765 79.133132,815.32805 63.514426,805.01431 46.008247,785.30789 35.312606,766 13.577319,726.76322 2.7239875,665.78637 5.9440904,601 9.4428912,530.60642 23.293305,461.1014 48.618239,386.84993 86.610318,275.45899 141.49754,179.86569 206.09652,112.58081 258.45454,58.045865 315.77996,26.721426 390,12.090092 444.77105,1.2928255 511.28342,2.1811582 577,14.587645 726.32079,42.777586 880.11911,130.64741 964.53746,236 c 13.25207,16.53835 28.98428,41.17592 37.95164,59.43446 13.0685,26.60903 20.3335,48.40935 25.1476,75.46093 3.4755,19.52978 4.3927,53.66687 1.9967,74.30962 -7.7705,66.94451 -36.77119,122.63121 -89.21938,171.31794 C 876.735,675.63505 789.42736,727.4669 681.5,770.23222 571.03089,814.00468 450.07046,843.04756 339,852.46726 c -16.8857,1.43205 -65.01246,3.70492 -71,3.3531 -1.375,-0.0808 -12.4,-0.47788 -24.5,-0.8824 z m 65,-2.95505 C 496.38449,841.96905 713.88488,772.56063 859.48698,676.15273 903.46704,647.0321 947.81461,609.0413 969.39371,582 c 24.59395,-30.81927 42.76349,-67.20864 51.67859,-103.5 5.5682,-22.66693 7.2766,-37.49389 7.2591,-63 -0.018,-26.20468 -1.907,-41.9547 -7.7806,-64.87198 C 1010.9597,313.2063 989.6496,271.83435 962.53766,238 892.26291,150.30065 770.41261,72.123948 644.69874,34.080956 555.29661,7.0264692 469.40159,0.20000706 393.5,14.117067 341.43598,23.663349 293.24453,44.230647 253.85963,73.713219 206.61508,109.07933 160.13705,164.76075 120.48345,233.5 49.09583,357.24998 5.1487403,513.99139 8.3316229,633.5 c 0.3369085,12.65 1.0933203,27.5 1.6809151,33 8.593145,80.43349 38.701043,133.34327 89.344895,157.00927 33.906147,15.84443 83.734467,26.31947 137.142567,28.83047 15.83599,0.74453 54.97517,0.55056 72,-0.35683 z M 183.28443,672.44338 c -1.87209,-1.47554 -3.64543,-4.08219 -4.24442,-6.23891 -1.26008,-4.537 -1.37779,-393.50667 -0.12106,-400.00739 1.57215,-8.13222 6.02232,-10.53466 29.08105,-15.6995 33.10053,-7.41406 70.34199,-11.5765 103.95859,-11.61932 24.53545,-0.0313 36.67614,1.23302 53.15861,5.53571 45.07994,11.76793 75.03447,42.22566 86.96602,88.42691 5.26823,20.39961 6.13912,32.37225 5.67085,77.95996 -0.37503,36.51085 -0.64324,41.90877 -2.60621,52.45332 -8.90183,47.81816 -34.04672,81.35341 -72.56277,96.77552 -27.24981,10.91102 -59.10828,13.44938 -104.83509,8.35286 l -5.75,-0.64087 -0.006,47.37916 c -0.003,29.23177 -0.39767,48.79089 -1.02925,51.06489 -0.56303,2.02715 -2.39504,4.83965 -4.07115,6.25 L 263.84655,675 225.17327,674.9889 186.5,674.9778 l -3.21557,-2.53444 z m 82.79853,-3.20916 2.91704,-3.26577 0,-49.92521 c 0,-32.06009 0.35629,-50.1454 0.99567,-50.54056 0.54762,-0.33845 7.18512,0.0549 14.75,0.87403 37.3359,4.04293 63.8849,2.28224 88.73646,-5.88487 42.39117,-13.93126 69.63801,-47.57579 78.95324,-97.49184 4.85254,-26.00252 4.6293,-92.40246 -0.39841,-118.5 -9.06646,-47.06172 -35.76213,-79.71185 -77.09363,-94.28936 -20.22125,-7.13199 -41.37759,-9.78483 -70.8887,-8.88891 -37.70704,1.14475 -73.414,5.96412 -106.05463,14.31422 -10.05236,2.57158 -13.72318,4.54529 -15.73526,8.46045 -0.96799,1.88355 -1.23845,45.41648 -1.25,201.20326 -0.013,175.5086 0.16247,199.14235 1.49783,201.72465 3.05758,5.91271 3.39466,5.9566 43.82039,5.70496 l 36.83296,-0.22927 2.91704,-3.26578 z M 286.5,495.19187 269.5,493.5 l -0.25541,-88.13571 -0.25541,-88.1357 3.25541,-0.55179 c 1.79047,-0.30348 13.03552,-1.11174 24.98898,-1.79614 24.97439,-1.4299 33.37225,-0.65736 43.26643,3.98018 11.80607,5.53367 20.24998,17.64009 24.15993,34.63916 1.63767,7.12003 1.84007,12.83982 1.84007,52 0,42.2165 -0.0903,44.35401 -2.22738,52.7337 -4.97601,19.51131 -13.37009,29.93473 -28.77262,35.72868 -8.11397,3.05221 -26.14037,3.50453 -49,1.22949 z m 44.14981,-2.5868 c 20.31755,-5.40975 30.24582,-20.58333 33.384,-51.02147 1.62923,-15.80238 0.71563,-74.20385 -1.32317,-84.5836 -3.85102,-19.60592 -13.3,-32.41872 -27.84361,-37.75589 -5.92377,-2.17389 -33.233,-2.84281 -50.05493,-1.22605 L 272,319.24943 l 0,85.87528 c 0,47.23141 0.3375,85.91272 0.75,85.95848 28.27668,3.13635 49.71952,3.69997 57.89981,1.52188 z M 791.5,569.54005 C 759.70146,564.84848 735.07146,553.2067 715.41118,533.57542 692.81825,511.0158 680.37385,481.65909 677.01598,443 c -1.28873,-14.83715 -1.28504,-61.02871 0.006,-76.5 2.38012,-28.51975 10.76216,-54.03895 24.29541,-73.96755 6.60483,-9.72603 19.98497,-22.84236 30.5362,-29.93412 24.98348,-16.79206 50.45514,-23.76328 86.73147,-23.73714 29.82011,0.0215 50.74057,4.59915 72.82944,15.936 34.76715,17.84383 57.03973,49.77097 65.01889,93.20281 4.72465,25.71704 4.7374,87.95107 0.0234,114 -3.49116,19.29152 -11.53673,39.74725 -21.46243,54.56789 -6.49594,9.69946 -22.20342,25.567 -30.99442,31.31023 -15.26647,9.97373 -33.53301,17.1414 -52.98655,20.79157 -11.49449,2.15677 -47.25022,2.67969 -59.51345,0.87036 z m 42,-1.55358 c 27.07385,-2.21525 49.06691,-9.36895 69,-22.44366 8.24526,-5.40832 24.13645,-21.4799 30.19999,-30.54281 12.11902,-18.1138 19.34634,-38.56738 22.80081,-64.52717 2.01123,-15.11404 2.03839,-75.69585 0.0406,-90.47283 -2.96295,-21.91568 -6.58235,-34.3147 -15.03333,-51.5 C 919.23287,265.2363 875.12809,241 817.6728,241 c -41.81975,0 -77.92031,13.83736 -102.26935,39.19988 -12.60364,13.12825 -20.72122,26.51952 -27.19149,44.85679 -7.9514,22.5349 -9.51458,37.7032 -8.92105,86.56548 0.51232,42.17725 0.92433,46.20573 6.78865,66.37785 13.2843,45.69541 47.87091,77.35653 94.97457,86.94121 18.04435,3.67168 33.68845,4.58005 52.4459,3.04526 z M 809.01225,493.94536 C 794.76536,492.02123 781.49436,482.13904 775.10745,468.69831 768.5698,454.94038 767,442.6068 767,405 c 0,-38.03369 1.52416,-49.93075 8.18477,-63.88747 3.5524,-7.44373 12.10632,-16.6899 18.4204,-19.9111 C 800.01825,317.92972 809.13704,316 818.18425,316 c 29.41402,0 45.48127,16.77509 49.7807,51.97377 1.32745,10.86759 1.33003,61.76487 0.004,73.52623 -3.18092,28.20775 -13.77166,44.67066 -32.42626,50.40542 -7.65986,2.35478 -18.19883,3.16513 -26.53017,2.03994 z m 20.0281,-2.95301 c 15.34213,-2.90958 26.23779,-12.97232 32.09728,-29.6436 4.48094,-12.74908 5.23168,-20.8351 5.23168,-56.34875 0,-35.51365 -0.75074,-43.59967 -5.23168,-56.34875 -5.9765,-17.00419 -17.59906,-26.96434 -34.63763,-29.68328 -24.85521,-3.96629 -44.8463,8.27364 -52.31692,32.03203 -3.99532,12.7061 -4.64121,20.12818 -4.65575,53.5 -0.015,34.32838 0.791,43.13312 5.1167,55.89813 8.06738,23.80656 28.77502,35.4532 54.39632,30.59422 z m -336.158,71.1253 -3.88235,-3.88236 0,-153.97162 0,-153.97162 2.46169,-2.65621 c 1.35393,-1.46092 3.63323,-3.10163 5.0651,-3.64603 C 498.06698,243.40424 513.62196,243 534.61476,243 c 39.19209,0 39.62342,0.0626 43.42572,6.29855 1.32736,2.17693 1.95324,5.01313 1.95578,8.86265 l 0.004,5.66121 6.73899,-4.51899 c 18.44639,-12.36965 41.58012,-19.95411 62.32799,-20.4344 9.18815,-0.2127 13.11677,1.13586 16.01522,5.49747 1.84259,2.77274 2.64436,58.22156 0.93372,64.57439 -1.70254,6.32276 -4.01967,7.27129 -19.84029,8.12173 -19.47765,1.04703 -34.77952,5.06807 -55.90207,14.69001 l -8.22644,3.74738 -0.27356,111 c -0.26401,107.12688 -0.3398,111.09774 -2.17206,113.80111 C 575.76718,565.9584 575.43743,566 534.43201,566 l -37.6673,0 -3.88236,-3.88235 z m 79.44537,0.51878 C 579.50643,559.63697 579,568.56542 579,445.00243 l 0,-111.06794 9.36218,-4.34528 c 21.04411,-9.76724 38.59168,-14.36258 58.46948,-15.31193 18.1635,-0.86747 16.60656,2.28814 16.96124,-34.3771 0.19489,-20.14813 -0.0702,-31.15548 -0.79239,-32.89894 -2.06213,-4.97842 -6.12023,-6.35832 -16.54417,-5.62559 -20.75076,1.45864 -43.83277,9.80913 -60.95314,22.05131 -2.74824,1.96517 -5.50028,3.57304 -6.11564,3.57304 -0.67222,0 -1.32136,-2.8307 -1.62622,-7.09145 -0.3492,-4.88061 -1.12233,-7.92027 -2.47987,-9.75 -3.65241,-4.92277 -6.78387,-5.2816 -43.25798,-4.95695 -30.32584,0.26994 -33.77615,0.46997 -36.17236,2.09715 -1.45688,0.98931 -3.1504,3.01431 -3.76338,4.5 -0.80654,1.95484 -1.04173,44.47658 -0.85113,153.88568 l 0.26338,151.18443 2.88775,3.01407 c 1.58826,1.65774 3.83826,3.20096 5,3.42939 1.16174,0.22842 17.3142,0.4766 35.89437,0.5515 26.50946,0.10686 34.48468,-0.15737 37.0456,-1.22739 z"
     id="path3001"
     inkscape:connector-curvature="0" />
</svg>
