<?xml version="1.0" encoding="UTF-8" standalone="no"?>
<!-- Created with Inkscape (http://www.inkscape.org/) -->

<svg
   xmlns:dc="http://purl.org/dc/elements/1.1/"
   xmlns:cc="http://creativecommons.org/ns#"
   xmlns:rdf="http://www.w3.org/1999/02/22-rdf-syntax-ns#"
   xmlns:svg="http://www.w3.org/2000/svg"
   xmlns="http://www.w3.org/2000/svg"
   xmlns:sodipodi="http://sodipodi.sourceforge.net/DTD/sodipodi-0.dtd"
   xmlns:inkscape="http://www.inkscape.org/namespaces/inkscape"
   id="svg2985"
   version="1.1"
   inkscape:version="0.48.4 r9939"
   width="1000"
   height="1000"
   sodipodi:docname="Pro-solid.svg"
   inkscape:export-filename="C:\Drives\Dropbox\ProGraphics\src\GitHub\Pro-Graphics\pro.io\assets\img\msapplication_tileimage.png"
   inkscape:export-xdpi="13.057618"
   inkscape:export-ydpi="13.057618">
  <metadata
     id="metadata2991">
    <rdf:RDF>
      <cc:Work
         rdf:about="">
        <dc:format>image/svg+xml</dc:format>
        <dc:type
           rdf:resource="http://purl.org/dc/dcmitype/StillImage" />
        <dc:title></dc:title>
      </cc:Work>
    </rdf:RDF>
  </metadata>
  <defs
     id="defs2989" />
  <sodipodi:namedview
     pagecolor="#ffffff"
     bordercolor="#666666"
     borderopacity="1"
     objecttolerance="10"
     gridtolerance="10"
     guidetolerance="10"
     inkscape:pageopacity="0"
     inkscape:pageshadow="2"
     inkscape:window-width="1007"
     inkscape:window-height="632"
     id="namedview2987"
     showgrid="false"
     inkscape:zoom="0.5"
     inkscape:cx="119.82115"
     inkscape:cy="706.79867"
     inkscape:window-x="685"
     inkscape:window-y="202"
     inkscape:window-maximized="0"
     inkscape:current-layer="svg2985" />
  <path
     style="fill:#334455;fill-opacity:1"
     d="M 235.53172,912.14362 C 222.1737,911.65675 192.88213,908.97613 179.7563,907.0393 142.78725,901.5842 111.49908,892.23905 88.608558,879.81533 25.450284,845.53645 -2.363022,754.52992 11.595266,627.82372 25.966799,497.36601 84.182786,347.68421 159.54762,247.41661 197.38417,197.07776 237.03803,160.39415 278.89341,137.01036 374.98294,83.32699 506.9775,80.13258 647.3983,128.09214 c 49.55485,16.92505 104.25567,43.36958 148.76794,71.92026 67.85023,43.51989 124.36319,97.22188 156.87086,149.06805 18.94366,30.21307 31.87969,63.3221 38.06746,97.43144 2.33759,12.88545 2.53863,16.10095 2.59068,41.42752 0.0635,30.88207 -0.93881,40.20361 -6.88779,64.06813 -4.43071,17.77393 -9.49209,31.52197 -18.08915,49.13496 -8.23109,16.86308 -14.88167,27.71 -25.9912,42.39094 C 899.81543,700.24002 812.14549,761.98761 706.85748,809.66081 557.06683,877.48427 374.39035,917.2046 235.53172,912.14362 z m 20.199,-175.08151 c 6.38062,-2.666 6.29534,-1.92178 6.29534,-54.94359 0,-44.83349 0.10257,-47.73586 1.686,-47.70791 0.92731,0.0164 4.93759,0.46167 8.91174,0.9896 31.04792,4.12438 61.94393,2.5304 86.22704,-4.44863 37.74398,-10.8477 65.19426,-39.86566 76.5239,-80.89416 5.21836,-18.89745 5.3677,-20.86694 5.3677,-70.78889 0,-44.41671 -0.10617,-47.267 -2.14793,-57.66335 -10.62749,-54.11369 -43.50561,-87.90953 -95.15856,-97.81468 -34.23802,-6.56561 -88.65352,-3.28975 -141.91157,8.54321 -17.90378,3.97789 -23.30288,6.3891 -24.9484,11.14185 -0.87518,2.52775 -1.1629,48.97756 -1.2043,194.41663 -0.0485,170.42766 0.10664,191.43468 1.43437,194.23266 1.3611,2.86829 3.29589,4.39796 7.18213,5.67829 0.79484,0.26186 16.52472,0.51032 34.95531,0.55216 26.91396,0.0611 34.15522,-0.19347 36.78723,-1.29319 z m 36.16169,-170.6532 c -0.79483,-0.16956 -7.83992,-0.8255 -15.65574,-1.45764 l -14.21061,-1.14936 0,-84.09937 0,-84.09937 2.64944,-0.54561 c 4.32406,-0.89047 29.87188,-2.4793 39.7415,-2.47153 19.88057,0.0156 31.80455,5.28992 40.05624,17.71784 7.62813,11.4888 9.88532,23.73156 10.67225,57.88521 0.94764,41.1288 -1.53911,63.6562 -8.46381,76.6734 -5.72666,10.76513 -16.75587,18.88668 -28.66728,21.10972 -4.72311,0.88147 -22.63346,1.1809 -26.12199,0.43671 z m 525.851,69.28618 c 42.38495,-6.01923 75.22316,-29.25194 92.24766,-65.26424 11.84331,-25.05233 14.87524,-43.63329 14.87524,-91.16232 0,-40.01963 -1.78087,-55.69933 -8.65755,-76.22473 -13.90501,-41.50378 -45.23465,-69.21991 -89.13065,-78.85057 -28.6265,-6.28057 -64.499,-4.3605 -90.6127,4.85004 -45.55567,16.06787 -72.81618,52.13077 -79.95784,105.77608 -1.95361,14.67474 -1.92487,74.08051 0.043,89.09299 5.72313,43.65858 25.18804,75.73978 57.80606,95.27346 26.94864,16.13849 64.15813,22.08028 103.38668,16.50929 z m -38.93145,-72.11263 c -13.50019,-2.93712 -23.06811,-10.72915 -29.29281,-23.85582 -6.58723,-13.89118 -7.22294,-19.21222 -7.22294,-60.45811 0,-41.45888 0.64564,-46.8115 7.29042,-60.44081 8.16765,-16.7529 20.8752,-24.30337 40.94711,-24.32965 17.26097,-0.0226 28.83801,5.77322 37.13719,18.59198 8.46721,13.0783 10.47888,25.78284 10.47888,66.17848 0,38.81099 -1.53158,49.75666 -8.93668,63.86774 -8.79754,16.76446 -29.22827,25.05258 -50.40117,20.44619 z m -221.41931,65.75453 3.2969,-3.59872 0.03,-107.19579 0.03,-107.19581 8.93659,-4.08853 c 20.61319,-9.43061 36.60854,-13.59307 55.5365,-14.45218 11.51659,-0.52274 12.1389,-0.6588 14.69231,-3.2122 l 2.66628,-2.66634 0,-29.49265 c 0,-32.3359 -0.065,-32.73152 -5.87582,-35.73638 -4.84819,-2.50711 -19.8152,-1.095 -36.08282,3.40434 -9.76904,2.70194 -27.10272,11.03633 -34.87766,16.76991 -3.31328,2.44336 -6.2397,4.44247 -6.50316,4.44247 -0.26345,0 -0.47901,-3.43499 -0.47901,-7.63334 0,-7.23931 -0.15301,-7.78635 -2.9644,-10.59774 l -2.96441,-2.96439 -36.03933,0 -36.03934,0 -3.14635,2.81116 -3.14635,2.81117 -0.28573,145.31628 c -0.1992,101.30298 0.027,146.3959 0.74674,148.88076 1.02228,3.52923 4.48752,6.81938 8.20987,7.79506 1.05978,0.27777 17.45985,0.43678 36.44462,0.35334 l 34.51776,-0.1517 3.29689,-3.59872 z"
     id="path3794"
     inkscape:connector-curvature="0" />
</svg>
